<?xml version="1.0" encoding="UTF-8" standalone="no"?>
<!-- Created with Inkscape (http://www.inkscape.org/) -->

<svg
   xmlns:dc="http://purl.org/dc/elements/1.1/"
   xmlns:cc="http://creativecommons.org/ns#"
   xmlns:rdf="http://www.w3.org/1999/02/22-rdf-syntax-ns#"
   xmlns:svg="http://www.w3.org/2000/svg"
   xmlns="http://www.w3.org/2000/svg"
   xmlns:sodipodi="http://sodipodi.sourceforge.net/DTD/sodipodi-0.dtd"
   xmlns:inkscape="http://www.inkscape.org/namespaces/inkscape"
   width="744.09448819"
   height="1052.3622047"
   id="svg2"
   version="1.1"
   inkscape:version="0.48.4 r9939"
   sodipodi:docname="v1.svg">
  <defs
     id="defs4" />
  <sodipodi:namedview
     id="base"
     pagecolor="#ffffff"
     bordercolor="#666666"
     borderopacity="1.0"
     inkscape:pageopacity="0.0"
     inkscape:pageshadow="2"
     inkscape:zoom="1.4386681"
     inkscape:cx="562.08826"
     inkscape:cy="199.12399"
     inkscape:document-units="px"
     inkscape:current-layer="layer3"
     showgrid="false"
     inkscape:window-width="1280"
     inkscape:window-height="977"
     inkscape:window-x="-4"
     inkscape:window-y="-4"
     inkscape:window-maximized="1"
     showguides="true"
     inkscape:guide-bbox="true"
     inkscape:object-nodes="true"
     inkscape:object-paths="false"
     inkscape:snap-nodes="true" />
  <metadata
     id="metadata7">
    <rdf:RDF>
      <cc:Work
         rdf:about="">
        <dc:format>image/svg+xml</dc:format>
        <dc:type
           rdf:resource="http://purl.org/dc/dcmitype/StillImage" />
        <dc:title />
      </cc:Work>
    </rdf:RDF>
  </metadata>
  <g
     inkscape:groupmode="layer"
     id="layer3"
     inkscape:label="r">
    <g
       id="g3952"
       inkscape:export-filename="C:\Users\Солдатов\d\flash\games\LudumDare28\src\data\player_100x160_3.png"
       inkscape:export-xdpi="90"
       inkscape:export-ydpi="90">
      <rect
         y="599.90094"
         x="125.18037"
         height="160"
         width="100"
         id="rect3942"
         style="color:#000000;fill:#4d4d4d;fill-opacity:1;fill-rule:nonzero;stroke:none;stroke-width:1;marker:none;visibility:visible;display:inline;overflow:visible;enable-background:accumulate" />
      <rect
         style="color:#000000;fill:#666666;fill-opacity:1;fill-rule:nonzero;stroke:none;stroke-width:1;marker:none;visibility:visible;display:inline;overflow:visible;enable-background:accumulate"
         id="rect3946"
         width="100"
         height="160"
         x="225.18036"
         y="599.90094" />
      <rect
         y="599.90094"
         x="325.18036"
         height="160"
         width="100"
         id="rect3948"
         style="color:#000000;fill:#4d4d4d;fill-opacity:1;fill-rule:nonzero;stroke:none;stroke-width:1;marker:none;visibility:visible;display:inline;overflow:visible;enable-background:accumulate" />
    </g>
    <g
       inkscape:export-ydpi="90"
       inkscape:export-xdpi="90"
       inkscape:export-filename="C:\Users\Солдатов\d\flash\games\LudumDare28\src\data\player_100x120_3.png"
       id="g3893"
       transform="matrix(1,0,0,0.75,-7.8640186,379.2031)">
      <rect
         style="color:#000000;fill:#4d4d4d;fill-opacity:1;fill-rule:nonzero;stroke:none;stroke-width:1;marker:none;visibility:visible;display:inline;overflow:visible;enable-background:accumulate"
         id="rect3895"
         width="100"
         height="160"
         x="125.18037"
         y="599.90094" />
      <rect
         y="599.90094"
         x="225.18036"
         height="160"
         width="100"
         id="rect3897"
         style="color:#000000;fill:#666666;fill-opacity:1;fill-rule:nonzero;stroke:none;stroke-width:1;marker:none;visibility:visible;display:inline;overflow:visible;enable-background:accumulate" />
      <rect
         style="color:#000000;fill:#4d4d4d;fill-opacity:1;fill-rule:nonzero;stroke:none;stroke-width:1;marker:none;visibility:visible;display:inline;overflow:visible;enable-background:accumulate"
         id="rect3899"
         width="100"
         height="160"
         x="325.18036"
         y="599.90094" />
    </g>
    <path
       inkscape:connector-curvature="0"
       style="color:#000000;fill:#6f7c91;stroke:none;stroke-width:1;marker:none;visibility:visible;display:inline;overflow:visible;enable-background:accumulate"
       d="m 139.75931,309.29367 152.41774,0 0,136.19821 -152.41774,0 z"
       id="rect2985" />
    <g
       transform="matrix(0.3,0,0,0.3,375.58841,575.22702)"
       id="g4969"
       inkscape:export-filename="C:\Users\Солдатов\d\flash\games\LudumDare28\src\data\worm_60x30_4.png"
       inkscape:export-xdpi="90"
       inkscape:export-ydpi="90">
      <path
         id="path4971"
         d="m 520.66718,744.47202 200,0 0,100 -200,0 z"
         style="color:#000000;fill:#6f7c91;stroke:none;stroke-width:1;marker:none;visibility:visible;display:inline;overflow:visible;enable-background:accumulate"
         inkscape:connector-curvature="0" />
      <path
         inkscape:connector-curvature="0"
         style="color:#000000;fill:#6f7c91;stroke:none;stroke-width:1;marker:none;visibility:visible;display:inline;overflow:visible;enable-background:accumulate"
         d="m 520.66718,844.47202 200,0 0,100 -200,0 z"
         id="path4973" />
      <path
         id="path4975"
         d="m 520.66718,944.47202 200,0 0,99.99998 -200,0 z"
         style="color:#000000;fill:#6f7c91;stroke:none;stroke-width:1;marker:none;visibility:visible;display:inline;overflow:visible;enable-background:accumulate"
         inkscape:connector-curvature="0" />
      <path
         inkscape:connector-curvature="0"
         style="color:#000000;fill:#6f7c91;stroke:none;stroke-width:1;marker:none;visibility:visible;display:inline;overflow:visible;enable-background:accumulate"
         d="m 520.66718,1044.472 200,0 0,100 -200,0 z"
         id="path4977" />
    </g>
    <g
       transform="matrix(0.3,0,0,0.3,398.85549,593.51309)"
       id="g4979"
       inkscape:export-filename="C:\Users\Солдатов\d\flash\games\LudumDare28\src\data\worm_60x30_4.png"
       inkscape:export-xdpi="90"
       inkscape:export-ydpi="90">
      <path
         inkscape:connector-curvature="0"
         id="path4981"
         transform="translate(-0.38970779,32.73721)"
         d="m 594.875,700.65625 -17.71875,4.15625 -10.8125,11.3125 -9.34375,-2.9375 -5.625,-6.65625 -11.0625,-1.21875 -12.78125,3.9375 -11.8125,-1 -14.25,17.46875 -12.53125,5.40625 -8.09375,11.53125 3.6875,8.125 35.78125,0 5.1875,-2.875 4.84375,-3.46875 14.25,1.03125 10.78125,5.3125 23.03125,0 10.0625,-15.75 17.6875,-11.78125 -0.71875,-4.4375 -17.71875,7.15625 11.8125,-16 -4.65625,-9.3125 z"
         style="fill:#ffcbc5;fill-opacity:1;stroke:none" />
      <path
         sodipodi:type="arc"
         style="color:#000000;fill:#c83737;fill-opacity:1;fill-rule:nonzero;stroke:none;stroke-width:1;marker:none;visibility:visible;display:inline;overflow:visible;enable-background:accumulate"
         id="path4983"
         sodipodi:cx="580.41309"
         sodipodi:cy="748.61456"
         sodipodi:rx="4.3739591"
         sodipodi:ry="2.7032554"
         d="m 584.78705,748.61456 c 0,1.49297 -1.95829,2.70326 -4.37396,2.70326 -2.41567,0 -4.37396,-1.21029 -4.37396,-2.70326 0,-1.49296 1.95829,-2.70325 4.37396,-2.70325 2.41567,0 4.37396,1.21029 4.37396,2.70325 z"
         transform="matrix(0.9145033,0,0,1.4796974,48.757948,-356.4732)" />
    </g>
    <g
       transform="matrix(0.3,0,0,0.3,399.04326,614.07799)"
       id="g4985"
       inkscape:export-filename="C:\Users\Солдатов\d\flash\games\LudumDare28\src\data\worm_60x30_4.png"
       inkscape:export-xdpi="90"
       inkscape:export-ydpi="90">
      <path
         inkscape:connector-curvature="0"
         id="path4987"
         d="m 591.28125,762.125 -16.96875,5.90625 -8.59375,12.28125 -7.375,-4.65625 -6.625,-6.40625 -12.0625,-2.4375 -13.5,3.6875 -12.78125,-0.25 -12.53125,19.65625 -12.53125,5.40625 -8.125,11.53125 3.6875,8.125 31.28125,0 11.03125,-7.625 13.1875,-1.375 16.65625,9 21.71875,0 10.09375,-15.71875 16.9375,-14.25 -1.46875,-5.40625 -16.21875,10.5625 10.8125,-19.4375 -6.625,-8.59375 z"
         style="fill:#ffcbc5;fill-opacity:1;stroke:none" />
      <path
         transform="matrix(0.9145033,0,0,1.4796974,47.037695,-323.29689)"
         d="m 584.78705,748.61456 c 0,1.49297 -1.95829,2.70326 -4.37396,2.70326 -2.41567,0 -4.37396,-1.21029 -4.37396,-2.70326 0,-1.49296 1.95829,-2.70325 4.37396,-2.70325 2.41567,0 4.37396,1.21029 4.37396,2.70325 z"
         sodipodi:ry="2.7032554"
         sodipodi:rx="4.3739591"
         sodipodi:cy="748.61456"
         sodipodi:cx="580.41309"
         id="path4989"
         style="color:#000000;fill:#c83737;fill-opacity:1;fill-rule:nonzero;stroke:none;stroke-width:1;marker:none;visibility:visible;display:inline;overflow:visible;enable-background:accumulate"
         sodipodi:type="arc" />
    </g>
    <g
       transform="matrix(0.3,0,0,0.3,398.35617,622.59346)"
       id="g4991"
       inkscape:export-filename="C:\Users\Солдатов\d\flash\games\LudumDare28\src\data\worm_60x30_4.png"
       inkscape:export-xdpi="90"
       inkscape:export-ydpi="90">
      <path
         inkscape:connector-curvature="0"
         id="path4993"
         d="m 466.05607,886.58385 159.87009,0 1.39018,-6.25579 -20.50508,-0.69508 21.20016,-6.60333 -0.69508,-10.77386 -19.80999,-5.90824 -21.20017,4.51807 -20.85262,-9.03614 -11.81648,3.47544 -9.38368,-3.12789 -15.29192,-0.34755 -9.03614,5.90824 -21.89525,-1.73771 -11.81649,8.34104 -18.76736,4.17053 -5.90824,10.42631 z"
         style="fill:#ffcbc5;fill-opacity:1;stroke:none" />
      <path
         transform="matrix(0.9145033,0,0,1.4796974,73.241228,-239.55899)"
         d="m 584.78705,748.61456 c 0,1.49297 -1.95829,2.70326 -4.37396,2.70326 -2.41567,0 -4.37396,-1.21029 -4.37396,-2.70326 0,-1.49296 1.95829,-2.70325 4.37396,-2.70325 2.41567,0 4.37396,1.21029 4.37396,2.70325 z"
         sodipodi:ry="2.7032554"
         sodipodi:rx="4.3739591"
         sodipodi:cy="748.61456"
         sodipodi:cx="580.41309"
         id="path4995"
         style="color:#000000;fill:#c83737;fill-opacity:1;fill-rule:nonzero;stroke:none;stroke-width:1;marker:none;visibility:visible;display:inline;overflow:visible;enable-background:accumulate"
         sodipodi:type="arc" />
    </g>
    <g
       transform="matrix(0.3,0,0,0.3,396.06237,629.34278)"
       id="g4997"
       inkscape:export-filename="C:\Users\Солдатов\d\flash\games\LudumDare28\src\data\worm_60x30_4.png"
       inkscape:export-xdpi="90"
       inkscape:export-ydpi="90">
      <path
         inkscape:connector-curvature="0"
         id="path4999"
         d="m 496.63991,964.08609 39.27244,0 9.03613,-14.59684 4.17053,-16.68209 4.86561,18.07227 10.07877,13.20666 44.13804,0 1.73772,0 1.04263,-7.99351 -20.85262,-3.82298 22.93788,0.34755 -1.39017,-9.03614 -15.63947,-9.38368 -15.63946,-1.39017 -6.95087,-13.90175 1.04263,-7.9935 -13.90175,-12.51158 -25.02315,-4.17052 -16.33455,18.07227 -1.39017,22.93788 -18.41982,12.16403 -7.64596,9.38368 z"
         style="fill:#ffcbc5;fill-opacity:1;stroke:none" />
      <path
         transform="matrix(0.9145033,0,0,1.4796974,63.857548,-164.14201)"
         d="m 584.78705,748.61456 c 0,1.49297 -1.95829,2.70326 -4.37396,2.70326 -2.41567,0 -4.37396,-1.21029 -4.37396,-2.70326 0,-1.49296 1.95829,-2.70325 4.37396,-2.70325 2.41567,0 4.37396,1.21029 4.37396,2.70325 z"
         sodipodi:ry="2.7032554"
         sodipodi:rx="4.3739591"
         sodipodi:cy="748.61456"
         sodipodi:cx="580.41309"
         id="path5001"
         style="color:#000000;fill:#c83737;fill-opacity:1;fill-rule:nonzero;stroke:none;stroke-width:1;marker:none;visibility:visible;display:inline;overflow:visible;enable-background:accumulate"
         sodipodi:type="arc" />
    </g>
  </g>
  <g
     inkscape:groupmode="layer"
     id="layer2"
     inkscape:label="color" />
  <g
     inkscape:label="line"
     inkscape:groupmode="layer"
     id="layer1">
    <g
       id="g3916"
       transform="matrix(0.65905539,0,0,0.65905539,43.247261,254.20442)"
       inkscape:export-filename="C:\Users\Солдатов\d\flash\games\LudumDare28\src\data\player_100x160_3.png"
       inkscape:export-xdpi="90"
       inkscape:export-ydpi="90">
      <rect
         style="color:#000000;fill:#999999;fill-opacity:1;fill-rule:nonzero;stroke:#000000;stroke-width:1.51732314;stroke-miterlimit:4;stroke-opacity:1;stroke-dasharray:none;marker:none;visibility:visible;display:inline;overflow:visible;enable-background:accumulate"
         id="rect3908"
         width="29.888754"
         height="63.948032"
         x="186.28342"
         y="642.26068" />
      <path
         transform="translate(7.6459606,11.816485)"
         d="m 236.32969,542.51562 c 0,12.4763 -10.11404,22.59034 -22.59034,22.59034 -12.4763,0 -22.59034,-10.11404 -22.59034,-22.59034 0,-12.47629 10.11404,-22.59033 22.59034,-22.59033 12.4763,0 22.59034,10.11404 22.59034,22.59033 z"
         sodipodi:ry="22.590338"
         sodipodi:rx="22.590338"
         sodipodi:cy="542.51562"
         sodipodi:cx="213.73935"
         id="path3912"
         style="color:#000000;fill:#999999;fill-opacity:1;fill-rule:nonzero;stroke:#000000;stroke-width:1.51732314;stroke-linecap:square;stroke-linejoin:round;stroke-miterlimit:4;stroke-opacity:1;stroke-dasharray:none;stroke-dashoffset:0;marker:none;visibility:visible;display:inline;overflow:visible;enable-background:accumulate"
         sodipodi:type="arc" />
      <rect
         y="567.19122"
         x="179.33253"
         height="83.410477"
         width="41.705238"
         id="rect3906"
         style="color:#000000;fill:#999999;fill-opacity:1;fill-rule:nonzero;stroke:#000000;stroke-width:1.51732314;stroke-miterlimit:4;stroke-opacity:1;stroke-dasharray:none;marker:none;visibility:visible;display:inline;overflow:visible;enable-background:accumulate" />
      <rect
         y="694.39221"
         x="185.58833"
         height="63.948032"
         width="29.888754"
         id="rect3910"
         style="color:#000000;fill:#999999;fill-opacity:1;fill-rule:nonzero;stroke:#000000;stroke-width:1.51732314;stroke-miterlimit:4;stroke-opacity:1;stroke-dasharray:none;marker:none;visibility:visible;display:inline;overflow:visible;enable-background:accumulate" />
    </g>
    <g
       transform="matrix(0.65905539,0,0,0.65905539,143.88362,261.1553)"
       id="g3922"
       inkscape:export-filename="C:\Users\Солдатов\d\flash\games\LudumDare28\src\data\player_100x160_3.png"
       inkscape:export-xdpi="90"
       inkscape:export-ydpi="90">
      <rect
         y="670.66278"
         x="42.028641"
         height="63.948032"
         width="29.888754"
         id="rect3924"
         style="color:#000000;fill:#999999;fill-opacity:1;fill-rule:nonzero;stroke:#000000;stroke-width:1.51732314;stroke-miterlimit:4;stroke-opacity:1;stroke-dasharray:none;marker:none;visibility:visible;display:inline;overflow:visible;enable-background:accumulate"
         inkscape:transform-center-y="21.056826"
         transform="matrix(0.97608929,-0.21736997,0.21736997,0.97608929,0,0)"
         inkscape:transform-center-x="-4.6892438" />
      <path
         sodipodi:type="arc"
         style="color:#000000;fill:#999999;fill-opacity:1;fill-rule:nonzero;stroke:#000000;stroke-width:1.51732314;stroke-linecap:square;stroke-linejoin:round;stroke-miterlimit:4;stroke-opacity:1;stroke-dasharray:none;stroke-dashoffset:0;marker:none;visibility:visible;display:inline;overflow:visible;enable-background:accumulate"
         id="path3930"
         sodipodi:cx="213.73935"
         sodipodi:cy="542.51562"
         sodipodi:rx="22.590338"
         sodipodi:ry="22.590338"
         d="m 236.32969,542.51562 c 0,12.4763 -10.11404,22.59034 -22.59034,22.59034 -12.4763,0 -22.59034,-10.11404 -22.59034,-22.59034 0,-12.47629 10.11404,-22.59033 22.59034,-22.59033 12.4763,0 22.59034,10.11404 22.59034,22.59033 z"
         transform="translate(9.7553043,9.707141)" />
      <rect
         style="color:#000000;fill:#999999;fill-opacity:1;fill-rule:nonzero;stroke:#000000;stroke-width:1.51732314;stroke-miterlimit:4;stroke-opacity:1;stroke-dasharray:none;marker:none;visibility:visible;display:inline;overflow:visible;enable-background:accumulate"
         id="rect3926"
         width="41.705238"
         height="83.410477"
         x="286.24066"
         y="520.89825"
         transform="matrix(0.98348171,0.18100754,-0.18100754,0.98348171,0,0)" />
      <rect
         style="color:#000000;fill:#999999;fill-opacity:1;fill-rule:nonzero;stroke:#000000;stroke-width:1.51732314;stroke-miterlimit:4;stroke-opacity:1;stroke-dasharray:none;marker:none;visibility:visible;display:inline;overflow:visible;enable-background:accumulate"
         id="rect3928"
         width="29.888754"
         height="63.948032"
         x="359.65863"
         y="611.28467"
         inkscape:transform-center-y="-20.906287"
         transform="matrix(0.9691105,0.24662693,-0.24662693,0.9691105,0,0)"
         inkscape:transform-center-x="-5.3204019" />
    </g>
    <g
       id="g3932"
       transform="matrix(0.65905539,0,0,0.65905539,226.56141,277.7326)"
       inkscape:export-filename="C:\Users\Солдатов\d\flash\games\LudumDare28\src\data\player_100x160_3.png"
       inkscape:export-xdpi="90"
       inkscape:export-ydpi="90">
      <rect
         inkscape:transform-center-x="-18.973803"
         transform="matrix(0.47584305,-0.87953021,0.87953021,0.47584305,0,0)"
         inkscape:transform-center-y="10.265191"
         style="color:#000000;fill:#999999;fill-opacity:1;fill-rule:nonzero;stroke:#000000;stroke-width:1.51732314;stroke-miterlimit:4;stroke-opacity:1;stroke-dasharray:none;marker:none;visibility:visible;display:inline;overflow:visible;enable-background:accumulate"
         id="rect3934"
         width="29.888754"
         height="63.948032"
         x="-490.66626"
         y="462.94098" />
      <path
         transform="translate(24.520714,17.089845)"
         d="m 236.32969,542.51562 c 0,12.4763 -10.11404,22.59034 -22.59034,22.59034 -12.4763,0 -22.59034,-10.11404 -22.59034,-22.59034 0,-12.47629 10.11404,-22.59033 22.59034,-22.59033 12.4763,0 22.59034,10.11404 22.59034,22.59033 z"
         sodipodi:ry="22.590338"
         sodipodi:rx="22.590338"
         sodipodi:cy="542.51562"
         sodipodi:cx="213.73935"
         id="path3940"
         style="color:#000000;fill:#999999;fill-opacity:1;fill-rule:nonzero;stroke:#000000;stroke-width:1.51732314;stroke-linecap:square;stroke-linejoin:round;stroke-miterlimit:4;stroke-opacity:1;stroke-dasharray:none;stroke-dashoffset:0;marker:none;visibility:visible;display:inline;overflow:visible;enable-background:accumulate"
         sodipodi:type="arc" />
      <rect
         y="369.08911"
         x="478.08536"
         height="83.410477"
         width="41.705238"
         id="rect3936"
         style="color:#000000;fill:#999999;fill-opacity:1;fill-rule:nonzero;stroke:#000000;stroke-width:1.51732314;stroke-miterlimit:4;stroke-opacity:1;stroke-dasharray:none;marker:none;visibility:visible;display:inline;overflow:visible;enable-background:accumulate"
         transform="matrix(0.84715491,0.53134598,-0.53134598,0.84715491,0,0)" />
      <rect
         inkscape:transform-center-x="-5.6421565"
         transform="matrix(0.96519199,0.26154239,-0.26154239,0.96519199,0,0)"
         inkscape:transform-center-y="-20.82178"
         y="573.35822"
         x="387.5737"
         height="63.948032"
         width="29.888754"
         id="rect3938"
         style="color:#000000;fill:#999999;fill-opacity:1;fill-rule:nonzero;stroke:#000000;stroke-width:1.51732314;stroke-miterlimit:4;stroke-opacity:1;stroke-dasharray:none;marker:none;visibility:visible;display:inline;overflow:visible;enable-background:accumulate" />
    </g>
    <g
       inkscape:export-ydpi="90"
       inkscape:export-xdpi="90"
       inkscape:export-filename="C:\Users\Солдатов\d\flash\games\LudumDare28\src\data\player_100x120_3.png"
       transform="matrix(0.65905541,0,0,0.49429154,35.383244,569.85642)"
       id="g3901">
      <rect
         y="642.26068"
         x="186.28342"
         height="63.948032"
         width="29.888754"
         id="rect3903"
         style="color:#000000;fill:#999999;fill-opacity:1;fill-rule:nonzero;stroke:#000000;stroke-width:1.75205386;stroke-miterlimit:4;stroke-opacity:1;stroke-dasharray:none;marker:none;visibility:visible;display:inline;overflow:visible;enable-background:accumulate" />
      <path
         sodipodi:type="arc"
         style="color:#000000;fill:#999999;fill-opacity:1;fill-rule:nonzero;stroke:#000000;stroke-width:1.75205386;stroke-linecap:square;stroke-linejoin:round;stroke-miterlimit:4;stroke-opacity:1;stroke-dasharray:none;stroke-dashoffset:0;marker:none;visibility:visible;display:inline;overflow:visible;enable-background:accumulate"
         id="path3905"
         sodipodi:cx="213.73935"
         sodipodi:cy="542.51562"
         sodipodi:rx="22.590338"
         sodipodi:ry="22.590338"
         d="m 236.32969,542.51562 c 0,12.4763 -10.11404,22.59034 -22.59034,22.59034 -12.4763,0 -22.59034,-10.11404 -22.59034,-22.59034 0,-12.47629 10.11404,-22.59033 22.59034,-22.59033 12.4763,0 22.59034,10.11404 22.59034,22.59033 z"
         transform="translate(7.6459606,11.816485)" />
      <rect
         style="color:#000000;fill:#999999;fill-opacity:1;fill-rule:nonzero;stroke:#000000;stroke-width:1.75205386;stroke-miterlimit:4;stroke-opacity:1;stroke-dasharray:none;marker:none;visibility:visible;display:inline;overflow:visible;enable-background:accumulate"
         id="rect3907"
         width="41.705238"
         height="83.410477"
         x="179.33253"
         y="567.19122" />
      <rect
         style="color:#000000;fill:#999999;fill-opacity:1;fill-rule:nonzero;stroke:#000000;stroke-width:1.75205386;stroke-miterlimit:4;stroke-opacity:1;stroke-dasharray:none;marker:none;visibility:visible;display:inline;overflow:visible;enable-background:accumulate"
         id="rect3909"
         width="29.888754"
         height="63.948032"
         x="185.58833"
         y="694.39221" />
    </g>
    <g
       inkscape:export-ydpi="90"
       inkscape:export-xdpi="90"
       inkscape:export-filename="C:\Users\Солдатов\d\flash\games\LudumDare28\src\data\player_100x120_3.png"
       id="g3911"
       transform="matrix(0.65905541,0,0,0.49429154,136.0196,575.06958)">
      <rect
         inkscape:transform-center-x="-4.6892438"
         transform="matrix(0.97608929,-0.21736997,0.21736997,0.97608929,0,0)"
         inkscape:transform-center-y="21.056826"
         style="color:#000000;fill:#999999;fill-opacity:1;fill-rule:nonzero;stroke:#000000;stroke-width:1.75205386;stroke-miterlimit:4;stroke-opacity:1;stroke-dasharray:none;marker:none;visibility:visible;display:inline;overflow:visible;enable-background:accumulate"
         id="rect3913"
         width="29.888754"
         height="63.948032"
         x="42.028641"
         y="670.66278" />
      <path
         transform="translate(9.7553043,9.707141)"
         d="m 236.32969,542.51562 c 0,12.4763 -10.11404,22.59034 -22.59034,22.59034 -12.4763,0 -22.59034,-10.11404 -22.59034,-22.59034 0,-12.47629 10.11404,-22.59033 22.59034,-22.59033 12.4763,0 22.59034,10.11404 22.59034,22.59033 z"
         sodipodi:ry="22.590338"
         sodipodi:rx="22.590338"
         sodipodi:cy="542.51562"
         sodipodi:cx="213.73935"
         id="path3915"
         style="color:#000000;fill:#999999;fill-opacity:1;fill-rule:nonzero;stroke:#000000;stroke-width:1.75205386;stroke-linecap:square;stroke-linejoin:round;stroke-miterlimit:4;stroke-opacity:1;stroke-dasharray:none;stroke-dashoffset:0;marker:none;visibility:visible;display:inline;overflow:visible;enable-background:accumulate"
         sodipodi:type="arc" />
      <rect
         transform="matrix(0.98348171,0.18100754,-0.18100754,0.98348171,0,0)"
         y="520.89825"
         x="286.24066"
         height="83.410477"
         width="41.705238"
         id="rect3917"
         style="color:#000000;fill:#999999;fill-opacity:1;fill-rule:nonzero;stroke:#000000;stroke-width:1.75205386;stroke-miterlimit:4;stroke-opacity:1;stroke-dasharray:none;marker:none;visibility:visible;display:inline;overflow:visible;enable-background:accumulate" />
      <rect
         inkscape:transform-center-x="-5.3204019"
         transform="matrix(0.9691105,0.24662693,-0.24662693,0.9691105,0,0)"
         inkscape:transform-center-y="-20.906287"
         y="611.28467"
         x="359.65863"
         height="63.948032"
         width="29.888754"
         id="rect3919"
         style="color:#000000;fill:#999999;fill-opacity:1;fill-rule:nonzero;stroke:#000000;stroke-width:1.75205386;stroke-miterlimit:4;stroke-opacity:1;stroke-dasharray:none;marker:none;visibility:visible;display:inline;overflow:visible;enable-background:accumulate" />
    </g>
    <g
       inkscape:export-ydpi="90"
       inkscape:export-xdpi="90"
       inkscape:export-filename="C:\Users\Солдатов\d\flash\games\LudumDare28\src\data\player_100x120_3.png"
       transform="matrix(0.65905541,0,0,0.49429154,218.69739,587.50255)"
       id="g3921">
      <rect
         y="462.94098"
         x="-490.66626"
         height="63.948032"
         width="29.888754"
         id="rect3923"
         style="color:#000000;fill:#999999;fill-opacity:1;fill-rule:nonzero;stroke:#000000;stroke-width:1.75205386;stroke-miterlimit:4;stroke-opacity:1;stroke-dasharray:none;marker:none;visibility:visible;display:inline;overflow:visible;enable-background:accumulate"
         inkscape:transform-center-y="10.265191"
         transform="matrix(0.47584305,-0.87953021,0.87953021,0.47584305,0,0)"
         inkscape:transform-center-x="-18.973803" />
      <path
         sodipodi:type="arc"
         style="color:#000000;fill:#999999;fill-opacity:1;fill-rule:nonzero;stroke:#000000;stroke-width:1.75205386;stroke-linecap:square;stroke-linejoin:round;stroke-miterlimit:4;stroke-opacity:1;stroke-dasharray:none;stroke-dashoffset:0;marker:none;visibility:visible;display:inline;overflow:visible;enable-background:accumulate"
         id="path3925"
         sodipodi:cx="213.73935"
         sodipodi:cy="542.51562"
         sodipodi:rx="22.590338"
         sodipodi:ry="22.590338"
         d="m 236.32969,542.51562 c 0,12.4763 -10.11404,22.59034 -22.59034,22.59034 -12.4763,0 -22.59034,-10.11404 -22.59034,-22.59034 0,-12.47629 10.11404,-22.59033 22.59034,-22.59033 12.4763,0 22.59034,10.11404 22.59034,22.59033 z"
         transform="translate(24.520714,17.089845)" />
      <rect
         transform="matrix(0.84715491,0.53134598,-0.53134598,0.84715491,0,0)"
         style="color:#000000;fill:#999999;fill-opacity:1;fill-rule:nonzero;stroke:#000000;stroke-width:1.75205386;stroke-miterlimit:4;stroke-opacity:1;stroke-dasharray:none;marker:none;visibility:visible;display:inline;overflow:visible;enable-background:accumulate"
         id="rect3927"
         width="41.705238"
         height="83.410477"
         x="478.08536"
         y="369.08911" />
      <rect
         style="color:#000000;fill:#999999;fill-opacity:1;fill-rule:nonzero;stroke:#000000;stroke-width:1.75205386;stroke-miterlimit:4;stroke-opacity:1;stroke-dasharray:none;marker:none;visibility:visible;display:inline;overflow:visible;enable-background:accumulate"
         id="rect3929"
         width="29.888754"
         height="63.948032"
         x="387.5737"
         y="573.35822"
         inkscape:transform-center-y="-20.82178"
         transform="matrix(0.96519199,0.26154239,-0.26154239,0.96519199,0,0)"
         inkscape:transform-center-x="-5.6421565" />
    </g>
  </g>
</svg>
